<mxfile host="app.diagrams.net" modified="2021-06-21T07:07:41.118Z" agent="5.0 (Windows NT 10.0; Win64; x64) AppleWebKit/537.36 (KHTML, like Gecko) Chrome/81.0.4044.113 Safari/537.36" etag="TO0Kxm_1ougbImz_y2ue" version="14.7.2" type="github">
  <diagram id="4k8rNge6vFzOXhtXiYrG" name="第 1 页">
    <mxGraphModel dx="1422" dy="762" grid="0" gridSize="10" guides="1" tooltips="1" connect="1" arrows="1" fold="1" page="0" pageScale="1" pageWidth="1100" pageHeight="1700" math="0" shadow="0">
      <root>
        <mxCell id="0" />
        <mxCell id="1" parent="0" />
        <mxCell id="dmYHZ57Cx760YKuWyVX0-3" value="" style="edgeStyle=orthogonalEdgeStyle;rounded=0;orthogonalLoop=1;jettySize=auto;html=1;" edge="1" parent="1" source="dmYHZ57Cx760YKuWyVX0-1" target="dmYHZ57Cx760YKuWyVX0-2">
          <mxGeometry relative="1" as="geometry">
            <Array as="points">
              <mxPoint x="315" y="266" />
              <mxPoint x="315" y="266" />
            </Array>
          </mxGeometry>
        </mxCell>
        <mxCell id="dmYHZ57Cx760YKuWyVX0-10" value="1.write" style="edgeLabel;html=1;align=center;verticalAlign=middle;resizable=0;points=[];" vertex="1" connectable="0" parent="dmYHZ57Cx760YKuWyVX0-3">
          <mxGeometry x="-0.1795" y="-1" relative="1" as="geometry">
            <mxPoint x="-1" as="offset" />
          </mxGeometry>
        </mxCell>
        <mxCell id="dmYHZ57Cx760YKuWyVX0-1" value="cancen order" style="rounded=1;whiteSpace=wrap;html=1;" vertex="1" parent="1">
          <mxGeometry x="143" y="249" width="120" height="60" as="geometry" />
        </mxCell>
        <mxCell id="dmYHZ57Cx760YKuWyVX0-5" value="" style="edgeStyle=orthogonalEdgeStyle;rounded=0;orthogonalLoop=1;jettySize=auto;html=1;" edge="1" parent="1" source="dmYHZ57Cx760YKuWyVX0-2" target="dmYHZ57Cx760YKuWyVX0-4">
          <mxGeometry relative="1" as="geometry">
            <Array as="points">
              <mxPoint x="491" y="267" />
              <mxPoint x="491" y="267" />
            </Array>
          </mxGeometry>
        </mxCell>
        <mxCell id="dmYHZ57Cx760YKuWyVX0-7" style="edgeStyle=orthogonalEdgeStyle;curved=1;orthogonalLoop=1;jettySize=auto;html=1;exitX=0;exitY=0.7;exitDx=0;exitDy=0;entryX=1;entryY=0.75;entryDx=0;entryDy=0;" edge="1" parent="1" source="dmYHZ57Cx760YKuWyVX0-2" target="dmYHZ57Cx760YKuWyVX0-1">
          <mxGeometry relative="1" as="geometry">
            <Array as="points">
              <mxPoint x="380" y="294" />
            </Array>
          </mxGeometry>
        </mxCell>
        <mxCell id="dmYHZ57Cx760YKuWyVX0-2" value="Leap interface" style="shape=cylinder;whiteSpace=wrap;html=1;boundedLbl=1;backgroundOutline=1;rounded=1;" vertex="1" parent="1">
          <mxGeometry x="380" y="239" width="60" height="80" as="geometry" />
        </mxCell>
        <mxCell id="dmYHZ57Cx760YKuWyVX0-8" style="edgeStyle=orthogonalEdgeStyle;curved=1;orthogonalLoop=1;jettySize=auto;html=1;exitX=0;exitY=0.75;exitDx=0;exitDy=0;entryX=1;entryY=0.7;entryDx=0;entryDy=0;" edge="1" parent="1" source="dmYHZ57Cx760YKuWyVX0-4" target="dmYHZ57Cx760YKuWyVX0-2">
          <mxGeometry relative="1" as="geometry">
            <Array as="points">
              <mxPoint x="528" y="295" />
            </Array>
          </mxGeometry>
        </mxCell>
        <mxCell id="dmYHZ57Cx760YKuWyVX0-4" value="MMC batch" style="rounded=1;whiteSpace=wrap;html=1;" vertex="1" parent="1">
          <mxGeometry x="528" y="249" width="120" height="60" as="geometry" />
        </mxCell>
      </root>
    </mxGraphModel>
  </diagram>
</mxfile>
